<svg width="99" height="98" viewBox="0 0 99 98" fill="none" xmlns="http://www.w3.org/2000/svg">
	<path d="M94.4111 31.0561C94.4123 27.9518 93.5926 24.9001 92.0318 22.1978C90.4709 19.4956 88.2222 17.2348 85.5042 15.6354C82.7862 14.0361 79.6916 13.1526 76.5215 13.071C73.3513 12.9894 70.2135 13.7124 67.4134 15.1696C66.5336 11.1584 64.2754 7.56375 61.0155 4.98517C57.7557 2.40659 53.6912 1 49.5 1C45.3089 1 41.2444 2.40659 37.9846 4.98517C34.7247 7.56375 32.4665 11.1584 31.5867 15.1696C28.7866 13.7124 25.6488 12.9894 22.4786 13.071C19.3085 13.1526 16.2139 14.0361 13.4959 15.6354C10.7779 17.2348 8.52913 19.4956 6.96832 22.1978C5.4075 24.9001 4.58781 27.9518 4.58899 31.0561" fill="#0EA5E9" />
	<path d="M94.4111 31.0561C94.4123 27.9518 93.5926 24.9001 92.0318 22.1978C90.4709 19.4956 88.2222 17.2348 85.5042 15.6354C82.7862 14.0361 79.6916 13.1526 76.5215 13.071C73.3513 12.9894 70.2135 13.7124 67.4134 15.1696C66.5336 11.1584 64.2754 7.56375 61.0155 4.98517C57.7557 2.40659 53.6912 1 49.5 1C45.3089 1 41.2444 2.40659 37.9846 4.98517C34.7247 7.56375 32.4665 11.1584 31.5867 15.1696C28.7866 13.7124 25.6488 12.9894 22.4786 13.071C19.3085 13.1526 16.2139 14.0361 13.4959 15.6354C10.7779 17.2348 8.52913 19.4956 6.96832 22.1978C5.4075 24.9001 4.58781 27.9518 4.58899 31.0561" stroke="#0EA5E9" stroke-width="2" stroke-linecap="round" stroke-linejoin="round" />
	<path d="M94.8221 39.0561C94.8233 35.9518 94.0036 32.9001 92.4428 30.1978C90.882 27.4956 88.6332 25.2348 85.9152 23.6354C83.1972 22.0361 80.1026 21.1526 76.9325 21.071C73.7623 20.9894 70.6245 21.7124 67.8244 23.1696C66.9446 19.1584 64.6864 15.5638 61.4265 12.9852C58.1667 10.4066 54.1022 9 49.9111 9C45.7199 9 41.6554 10.4066 38.3956 12.9852C35.1357 15.5638 32.8775 19.1584 31.9977 23.1696C29.1976 21.7124 26.0598 20.9894 22.8896 21.071C19.7195 21.1526 16.6249 22.0361 13.9069 23.6354C11.1889 25.2348 8.94014 27.4956 7.37933 30.1978C5.81852 32.9001 4.99882 35.9518 5 39.0561" fill="#0EA5E9" />
	<path d="M94.8221 39.0561C94.8233 35.9518 94.0036 32.9001 92.4428 30.1978C90.882 27.4956 88.6332 25.2348 85.9152 23.6354C83.1972 22.0361 80.1026 21.1526 76.9325 21.071C73.7623 20.9894 70.6245 21.7124 67.8244 23.1696C66.9446 19.1584 64.6864 15.5638 61.4265 12.9852C58.1667 10.4066 54.1022 9 49.9111 9C45.7199 9 41.6554 10.4066 38.3956 12.9852C35.1357 15.5638 32.8775 19.1584 31.9977 23.1696C29.1976 21.7124 26.0598 20.9894 22.8896 21.071C19.7195 21.1526 16.6249 22.0361 13.9069 23.6354C11.1889 25.2348 8.94014 27.4956 7.37933 30.1978C5.81852 32.9001 4.99882 35.9518 5 39.0561" stroke="#0EA5E9" stroke-width="2" stroke-linecap="round" stroke-linejoin="round" />
	<path d="M2.08822 35.7021L16.0719 93.9026C16.288 94.7793 16.797 95.5602 17.5182 96.1213C18.2394 96.6825 19.1314 96.9917 20.0526 97H78.9473C79.8686 96.9917 80.7606 96.6825 81.4818 96.1213C82.203 95.5602 82.712 94.7793 82.9281 93.9026L96.9118 35.7021C97.0678 35.0227 97.042 34.3154 96.837 33.6485C96.6319 32.9817 96.2545 32.3779 95.7413 31.8957C95.2281 31.4134 94.5965 31.0689 93.9075 30.8956C93.2184 30.7223 92.4954 30.7259 91.8082 30.9062L69.9141 37.051L51.0311 29.6573C50.5459 29.4594 50.0256 29.3575 49.5 29.3575C48.9744 29.3575 48.4541 29.4594 47.9689 29.6573L29.0859 37.051L7.19175 30.9062C6.5046 30.7259 5.78154 30.7223 5.09252 30.8956C4.4035 31.0689 3.77184 31.4134 3.25864 31.8957C2.74544 32.3779 2.36807 32.9817 2.16303 33.6485C1.95799 34.3154 1.93222 35.0227 2.08822 35.7021Z" fill="#EF4444" stroke="#EF4444" stroke-width="2" stroke-linecap="round" stroke-linejoin="round" />
	<path d="M53.2699 59.517H47.1847C47.1581 58.1913 46.9129 57.0246 46.4489 56.017C45.9848 54.9962 45.3485 54.1411 44.5398 53.4517C43.7443 52.7491 42.8097 52.2187 41.7358 51.8608C40.6619 51.5028 39.5019 51.3239 38.2557 51.3239C35.8561 51.3239 33.6023 51.9337 31.4943 53.1534C29.3864 54.3731 27.59 56.1496 26.1051 58.483C24.6203 60.8163 23.5994 63.66 23.0426 67.0142C22.4991 70.2756 22.5653 73.0133 23.2415 75.2273C23.9176 77.4413 25.0578 79.1184 26.6619 80.2585C28.2794 81.3854 30.2216 81.9489 32.4886 81.9489C33.8144 81.9489 35.107 81.7765 36.3665 81.4318C37.6392 81.0739 38.8191 80.5502 39.9062 79.8608C40.9934 79.1714 41.9545 78.3295 42.7898 77.3352C43.6383 76.3277 44.3011 75.1742 44.7784 73.875H50.9432C50.2803 75.8902 49.3456 77.733 48.1392 79.4034C46.9328 81.0739 45.5076 82.5189 43.8636 83.7386C42.2197 84.9583 40.4167 85.8996 38.4545 86.5625C36.4924 87.2254 34.4176 87.5568 32.2301 87.5568C28.6373 87.5568 25.5748 86.7017 23.0426 84.9915C20.5237 83.268 18.714 80.8153 17.6136 77.6335C16.5265 74.4517 16.3409 70.66 17.0568 66.2585C17.786 61.9763 19.178 58.304 21.233 55.2415C23.3011 52.1657 25.8201 49.8125 28.7898 48.1818C31.7727 46.5379 34.9943 45.7159 38.4545 45.7159C40.642 45.7159 42.6439 46.0275 44.4602 46.6506C46.2765 47.2604 47.8409 48.1619 49.1534 49.3551C50.4792 50.535 51.5 51.9801 52.2159 53.6903C52.9318 55.3873 53.2831 57.3295 53.2699 59.517ZM56.1087 87L62.87 46.2727H88.1257L87.2507 51.5625H68.1399L66.0717 63.9716H83.3729L82.4979 69.2415H65.1967L62.2536 87H56.1087Z" fill="#EF4444" />
	<path d="M53.2699 59.517V61.517H55.2578L55.2699 59.5292L53.2699 59.517ZM47.1847 59.517L45.1851 59.557L45.2243 61.517H47.1847V59.517ZM46.4489 56.017L44.6281 56.8447L44.6322 56.8536L46.4489 56.017ZM44.5398 53.4517L43.2157 54.9506L43.2289 54.9623L43.2423 54.9737L44.5398 53.4517ZM41.7358 51.8608L42.3683 49.9634L42.3683 49.9634L41.7358 51.8608ZM26.1051 58.483L24.4178 57.4092L24.4178 57.4092L26.1051 58.483ZM23.0426 67.0142L25.0154 67.343L25.0156 67.3417L23.0426 67.0142ZM23.2415 75.2273L25.1543 74.6431L25.1543 74.6431L23.2415 75.2273ZM26.6619 80.2585L25.5033 81.8887L25.5109 81.8941L25.5186 81.8995L26.6619 80.2585ZM36.3665 81.4318L36.8944 83.3609L36.908 83.3571L36.3665 81.4318ZM39.9062 79.8608L38.8352 78.1718L39.9062 79.8608ZM42.7898 77.3352L41.2599 76.047L41.2584 76.0488L42.7898 77.3352ZM44.7784 73.875V71.875H43.3824L42.9011 73.1854L44.7784 73.875ZM50.9432 73.875L52.843 74.4999L53.7065 71.875H50.9432V73.875ZM48.1392 79.4034L46.5178 78.2324L46.5178 78.2324L48.1392 79.4034ZM43.8636 83.7386L42.6719 82.1324L42.6719 82.1324L43.8636 83.7386ZM38.4545 86.5625L37.8144 84.6677L37.8144 84.6677L38.4545 86.5625ZM23.0426 84.9915L21.9132 86.6421L21.9232 86.6489L23.0426 84.9915ZM17.6136 77.6335L15.721 78.2802L15.7235 78.2872L17.6136 77.6335ZM17.0568 66.2585L15.0852 65.9228L15.084 65.9301L15.0828 65.9374L17.0568 66.2585ZM21.233 55.2415L19.5733 54.1255L19.5722 54.1271L21.233 55.2415ZM28.7898 48.1818L29.7524 49.9349L29.7551 49.9334L28.7898 48.1818ZM44.4602 46.6506L43.8112 48.5424L43.8236 48.5465L44.4602 46.6506ZM49.1534 49.3551L47.8081 50.835L47.8159 50.8421L47.8238 50.8491L49.1534 49.3551ZM52.2159 53.6903L50.371 54.4626L50.3732 54.4677L52.2159 53.6903ZM53.2699 57.517H47.1847V61.517H53.2699V57.517ZM49.1843 59.4771C49.1533 57.9288 48.8649 56.482 48.2655 55.1804L44.6322 56.8536C44.9609 57.5672 45.163 58.4537 45.1851 59.557L49.1843 59.4771ZM48.2696 55.1894C47.6911 53.9166 46.8815 52.8198 45.8372 51.9297L43.2423 54.9737C43.8155 55.4624 44.2786 56.0758 44.6281 56.8446L48.2696 55.1894ZM45.8638 51.9528C44.8538 51.0606 43.6799 50.4006 42.3683 49.9634L41.1033 53.7582C41.9394 54.0369 42.6348 54.4375 43.2157 54.9506L45.8638 51.9528ZM42.3683 49.9634C41.071 49.531 39.6953 49.3239 38.2557 49.3239V53.3239C39.3085 53.3239 40.2529 53.4747 41.1033 53.7582L42.3683 49.9634ZM38.2557 49.3239C35.4989 49.3239 32.9003 50.0292 30.4927 51.4223L32.496 54.8845C34.3043 53.8382 36.2132 53.3239 38.2557 53.3239V49.3239ZM30.4927 51.4223C28.071 52.8235 26.0515 54.842 24.4178 57.4092L27.7924 59.5567C29.1284 57.4573 30.7018 55.9227 32.496 54.8845L30.4927 51.4223ZM24.4178 57.4092C22.7594 60.0152 21.6607 63.1263 21.0696 66.6867L25.0156 67.3417C25.5382 64.1938 26.4811 61.6174 27.7924 59.5567L24.4178 57.4092ZM21.0698 66.6854C20.4957 70.1299 20.5321 73.2029 21.3287 75.8114L25.1543 74.6431C24.5986 72.8236 24.5024 70.4212 25.0154 67.343L21.0698 66.6854ZM21.3287 75.8114C22.1102 78.3705 23.4784 80.4495 25.5033 81.8887L27.8206 78.6283C26.6371 77.7872 25.725 76.5121 25.1543 74.6431L21.3287 75.8114ZM25.5186 81.8995C27.52 83.2939 29.8761 83.9489 32.4886 83.9489V79.9489C30.5671 79.9489 29.0387 79.4769 27.8052 78.6175L25.5186 81.8995ZM32.4886 83.9489C33.99 83.9489 35.4603 83.7534 36.8944 83.3609L35.8385 79.5028C34.7537 79.7997 33.6388 79.9489 32.4886 79.9489V83.9489ZM36.908 83.3571C38.3627 82.948 39.7217 82.3461 40.9773 81.5498L38.8352 78.1718C37.9166 78.7543 36.9157 79.1997 35.825 79.5065L36.908 83.3571ZM40.9773 81.5498C42.2392 80.7496 43.3552 79.7715 44.3212 78.6216L41.2584 76.0488C40.5539 76.8875 39.7476 77.5932 38.8352 78.1718L40.9773 81.5498ZM44.3196 78.6235C45.3253 77.4292 46.1024 76.0709 46.6557 74.5646L42.9011 73.1854C42.4999 74.2776 41.9512 75.2261 41.26 76.047L44.3196 78.6235ZM44.7784 75.875H50.9432V71.875H44.7784V75.875ZM49.0433 73.2501C48.4428 75.0758 47.6004 76.7335 46.5178 78.2324L49.7606 80.5744C51.0909 78.7324 52.1178 76.7045 52.843 74.4999L49.0433 73.2501ZM46.5178 78.2324C45.4307 79.7378 44.1501 81.0357 42.6719 82.1324L45.0553 85.3448C46.8651 84.0021 48.4349 82.41 49.7606 80.5744L46.5178 78.2324ZM42.6719 82.1324C41.1977 83.2263 39.5811 84.0709 37.8144 84.6677L39.0947 88.4573C41.2522 87.7284 43.2417 86.6904 45.0553 85.3448L42.6719 82.1324ZM37.8144 84.6677C36.0699 85.2571 34.2122 85.5568 32.2301 85.5568V89.5568C34.623 89.5568 36.915 89.1937 39.0947 88.4573L37.8144 84.6677ZM32.2301 85.5568C28.9645 85.5568 26.3088 84.784 24.162 83.3341L21.9232 86.6489C24.8409 88.6194 28.3101 89.5568 32.2301 89.5568V85.5568ZM24.172 83.3409C22.0435 81.8846 20.4792 79.8004 19.5038 76.9798L15.7235 78.2872C16.9488 81.8303 19.0038 84.6514 21.9132 86.6421L24.172 83.3409ZM19.5062 76.9869C18.5543 74.2009 18.3512 70.7586 19.0309 66.5796L15.0828 65.9374C14.3307 70.5615 14.4987 74.7025 15.7211 78.2802L19.5062 76.9869ZM19.0284 66.5942C19.7185 62.5417 21.0218 59.1457 22.8937 56.3558L19.5722 54.1271C17.3343 57.4623 15.8535 61.411 15.0852 65.9228L19.0284 66.5942ZM22.8926 56.3575C24.7997 53.5213 27.0882 51.3978 29.7524 49.9349L27.8271 46.4287C24.5519 48.2272 21.8025 50.8102 19.5733 54.1255L22.8926 56.3575ZM29.7551 49.9334C32.4375 48.4551 35.3263 47.7159 38.4545 47.7159V43.7159C34.6624 43.7159 31.1079 44.6206 27.8244 46.4302L29.7551 49.9334ZM38.4545 47.7159C40.4515 47.7159 42.2307 48.0001 43.8112 48.5423L45.1092 44.7588C43.0572 44.0548 40.8326 43.7159 38.4545 43.7159V47.7159ZM43.8236 48.5465C45.3987 49.0754 46.7165 49.8426 47.8081 50.835L50.4988 47.8752C48.9654 46.4812 47.1543 45.4454 45.0968 44.7546L43.8236 48.5465ZM47.8238 50.8491C48.9159 51.8211 49.7654 53.0158 50.371 54.4626L54.0608 52.9181C53.2346 50.9444 52.0424 49.249 50.4831 47.8611L47.8238 50.8491ZM50.3732 54.4677C50.9659 55.8726 51.2818 57.5385 51.2699 59.5049L55.2699 59.5292C55.2844 57.1206 54.8978 54.902 54.0586 52.9129L50.3732 54.4677ZM56.1087 87L54.1357 86.6725L53.7493 89H56.1087V87ZM62.87 46.2727V44.2727H61.1747L60.897 45.9452L62.87 46.2727ZM88.1257 46.2727L90.0989 46.5991L90.4837 44.2727H88.1257V46.2727ZM87.2507 51.5625V53.5625H88.9471L89.2239 51.8889L87.2507 51.5625ZM68.1399 51.5625V49.5625H66.4457L66.1671 51.2337L68.1399 51.5625ZM66.0717 63.9716L64.0989 63.6428L63.7108 65.9716H66.0717V63.9716ZM83.3729 63.9716L85.3459 64.2992L85.7323 61.9716H83.3729V63.9716ZM82.4979 69.2415V71.2415H84.1932L84.4709 69.5691L82.4979 69.2415ZM65.1967 69.2415V67.2415H63.5009L63.2236 68.9145L65.1967 69.2415ZM62.2536 87V89H63.9494L64.2266 87.327L62.2536 87ZM58.0817 87.3275L64.843 46.6003L60.897 45.9452L54.1357 86.6725L58.0817 87.3275ZM62.87 48.2727H88.1257V44.2727H62.87V48.2727ZM86.1525 45.9463L85.2775 51.2361L89.2239 51.8889L90.0989 46.5991L86.1525 45.9463ZM87.2507 49.5625H68.1399V53.5625H87.2507V49.5625ZM66.1671 51.2337L64.0989 63.6428L68.0445 64.3004L70.1127 51.8913L66.1671 51.2337ZM66.0717 65.9716H83.3729V61.9716H66.0717V65.9716ZM81.3999 63.644L80.5249 68.9139L84.4709 69.5691L85.3459 64.2992L81.3999 63.644ZM82.4979 67.2415H65.1967V71.2415H82.4979V67.2415ZM63.2236 68.9145L60.2805 86.673L64.2266 87.327L67.1698 69.5685L63.2236 68.9145ZM62.2536 85H56.1087V89H62.2536V85Z" fill="#0EA5E9" />
</svg>
